<svg width="46" height="48" viewBox="0 0 46 48" fill="none" xmlns="http://www.w3.org/2000/svg">
<path fill-rule="evenodd" clip-rule="evenodd" d="M13.6667 0H6.04939V0.0129162C6.06437 1.37455 6.05925 2.73619 6.05414 4.09783C6.04712 5.96524 6.0401 7.83266 6.08492 9.70007C6.19148 13.3876 7.92548 17.1882 11.19 19.0966C11.8232 19.3963 12.135 19.9898 12.4481 20.5859L12.4481 20.586C12.614 20.9019 12.7803 21.2185 12.9951 21.4926C14.7097 23.895 17.5448 25.1866 20.3832 25.7581C20.3404 26.7266 20.3618 27.7087 20.3832 28.6929C20.4363 31.1313 20.4896 33.5825 19.5694 35.8715C18.4974 38.6453 15.9303 40.8863 12.9079 41.1446C13.158 41.2561 13.4044 41.4108 13.6526 41.5667C14.2887 41.9663 14.9374 42.3737 15.6946 42.081C19.7858 41.164 22.2915 36.9307 22.4756 32.9396C22.5045 31.3556 22.5 29.7717 22.4956 28.1877C22.4921 26.9398 22.4886 25.6919 22.5014 24.4439C20.4251 24.205 18.3392 23.5753 16.7053 22.232C15.7403 21.4625 14.9646 20.4819 14.4378 19.3657C13.9111 18.2495 13.6473 17.0274 13.6667 15.7933C13.643 10.5278 13.643 5.26335 13.6667 0ZM8.29598 5.42418L8.29598 5.42396C8.30286 3.96776 8.30973 2.51183 8.30973 1.0559L8.3065 1.04621L8.7426 1.04872C9.61208 1.05347 10.4843 1.05822 11.3612 1.09142C11.3766 3.03961 11.3619 4.9897 11.3472 6.94037C11.3188 10.6962 11.2904 14.4543 11.4774 18.2054C9.28167 16.5069 8.19995 13.7202 8.2839 10.9885C8.27847 9.13288 8.28723 7.27831 8.29598 5.42418ZM40.3293 0H32.741H32.7378V15.8224C32.77 17.8819 32.0093 19.8749 30.6131 21.3892C28.9017 23.2556 26.4024 24.2114 23.9192 24.4278C23.9155 24.9903 23.9103 25.5531 23.9051 26.1159C23.8829 28.4998 23.8607 30.8859 23.9548 33.2657C24.2292 37.4312 27.1451 41.6838 31.5043 42.2747C31.8104 42.1038 32.1159 41.9308 32.4217 41.7577L32.4262 41.7552L32.4265 41.755L32.4268 41.7548L32.4271 41.7547L32.4274 41.7545C32.784 41.5526 33.141 41.3504 33.4998 41.151C30.4581 40.8927 27.8942 38.6162 26.8286 35.8263C25.9257 33.5472 25.9774 31.116 26.0289 28.6968C26.0498 27.7159 26.0707 26.7371 26.0278 25.7711C29.6153 25.1059 33.135 23.0005 34.5396 19.4938C38.0786 17.7275 40.1452 13.8526 40.3002 9.97777C40.3465 7.90525 40.3389 5.83273 40.3312 3.76021V3.75977C40.3266 2.50651 40.322 1.25326 40.3293 0ZM35.0693 7.84566C35.0513 5.57946 35.0334 3.31318 35.0821 1.04944L35.0853 1.05267C36.0766 1.0559 37.0712 1.0559 38.0657 1.03975C38.102 2.87437 38.1055 4.70898 38.109 6.5436C38.1115 7.80887 38.1139 9.07415 38.1271 10.3394C38.2853 13.252 37.3521 16.3778 34.9174 18.1634C35.1238 14.7306 35.0965 11.2884 35.0693 7.84606V7.84599V7.84592V7.84586V7.84579V7.84573V7.84566ZM15.152 4.93078C20.3397 2.97091 26.0629 2.96402 31.2553 4.9114C31.2553 5.39253 31.2553 5.88012 31.2779 6.35479C28.7257 5.28225 25.985 4.7298 23.2166 4.7298C20.4481 4.7298 17.7075 5.28225 15.1553 6.35479C15.152 5.87366 15.152 5.40222 15.152 4.93078ZM18.9902 8.55126H18.9902C18.5979 8.56499 18.2065 8.57867 17.8231 8.55697L17.8328 8.56343V12.5707L18.8338 12.5287C18.8144 12.1283 18.8144 11.7248 18.8144 11.3244V11.3243L19.9769 11.3017L20.9941 12.5287L22.2082 12.561C21.8681 12.1434 21.5301 11.7193 21.1943 11.2888C21.9305 10.6946 22.3309 9.44819 21.4364 8.80238C20.6614 8.49281 19.8237 8.52211 18.9902 8.55126ZM18.829 10.1697C18.8153 9.94963 18.8015 9.72873 18.8015 9.50954V9.50309C18.998 9.54551 19.2727 9.52603 19.5577 9.50582C20.2707 9.45526 21.0485 9.4001 20.8294 10.2974C20.1718 10.391 19.5075 10.4299 18.8435 10.4137C18.8391 10.3326 18.8341 10.2512 18.829 10.1697ZM24.365 8.55698H28.6241C28.608 8.80239 28.5724 9.28998 28.5531 9.5257C28.1838 9.5257 27.8145 9.52283 27.4453 9.51996C26.7073 9.51422 25.9697 9.50848 25.2336 9.5257C25.2982 9.69684 25.4338 10.0327 25.5016 10.2006C26.1306 10.2463 26.7644 10.237 27.3985 10.2276H27.3985H27.3986H27.3986C27.6597 10.2238 27.9209 10.2199 28.1817 10.2199V11.1273C27.2647 11.1273 26.3476 11.1273 25.4306 11.0982C25.3951 11.5697 25.3628 12.0444 25.3369 12.519H24.3682C24.3661 11.2102 24.365 9.88951 24.365 8.55698ZM5.25861 12.5158C0.321386 18.9868 -0.476186 28.2542 3.16296 35.5196H3.16941C4.86608 38.9735 7.42686 41.9302 10.6032 44.1027C13.7795 46.2751 17.4635 47.5895 21.2976 47.9184C25.1317 48.2472 28.9857 47.5792 32.4855 45.9794C35.9854 44.3795 39.0122 41.902 41.2722 38.7874C46.9166 31.2346 46.9166 20.0104 41.1398 12.5287C40.9461 13.1584 40.7588 13.7784 40.5715 14.4242C42.4613 17.4915 43.5052 21.0045 43.5969 24.6061C43.6887 28.2077 42.825 31.7693 41.0939 34.9288C39.3627 38.0884 36.8257 40.7331 33.7408 42.5941C30.656 44.4552 27.1333 45.4661 23.5311 45.5241C19.9288 45.5822 16.3754 44.6852 13.2322 42.9245C10.089 41.1639 7.46811 38.6022 5.63604 35.5001C3.80396 32.398 2.82604 28.866 2.80172 25.2633C2.77739 21.6607 3.70754 18.1159 5.49756 14.9893C5.91374 14.4509 5.69459 13.8477 5.48047 13.2582C5.38891 13.0062 5.29826 12.7566 5.25861 12.5158ZM17.8226 14.6147H22.0914V15.5511C20.9845 15.5075 19.8761 15.5301 18.7719 15.6189L18.7978 16.0581C19.4832 16.1342 20.1717 16.1436 20.8612 16.1529H20.8613C21.1657 16.1571 21.4703 16.1612 21.7749 16.1711C21.7749 16.3093 21.7511 16.5429 21.7307 16.7423C21.7211 16.8364 21.7123 16.9228 21.7071 16.9881H18.843L18.8042 17.6177H22.1075C22.1169 17.7366 22.1324 17.913 22.148 18.0915C22.1646 18.2817 22.1815 18.4743 22.1915 18.6026H17.8258C17.821 17.5995 17.8216 16.6019 17.8222 15.607V15.6068C17.8224 15.2759 17.8226 14.9452 17.8226 14.6147ZM25.5277 14.6047C25.1397 14.6097 24.7521 14.6147 24.365 14.6147V18.567L25.3692 18.5477V17.1818C25.5967 17.1826 25.8243 17.1854 26.0521 17.1882C26.7363 17.1967 27.4219 17.2052 28.1075 17.1592C28.1303 17.0356 28.1677 16.8392 28.2024 16.6564C28.2267 16.5288 28.2498 16.4078 28.2657 16.3228C27.3293 16.297 26.3896 16.3035 25.4564 16.3228C25.4448 16.2386 25.4286 16.1171 25.4119 15.9921C25.3916 15.8393 25.3705 15.6814 25.3563 15.5802H28.6532L28.5628 14.6534C27.5503 14.5788 26.5378 14.5918 25.5277 14.6047Z" fill="#DEE5FD"/>
</svg>
