<svg width="236" height="224" viewBox="0 0 236 224" fill="none" xmlns="http://www.w3.org/2000/svg">
<path d="M198.16 135.392C197.892 135.941 197.362 136.319 196.754 136.389C182.901 137.996 168.181 136.07 162.507 135.18C153.033 125.716 142.777 115.19 135.216 105.99C134.44 105.048 134.403 103.701 135.116 102.708C145.899 87.6786 155.773 75.7524 159.947 71.0305C171.874 68.4315 183.767 66.1308 191.798 65.8027C192.405 65.7784 192.982 66.0577 193.337 66.5498C203.69 80.9462 211.094 94.742 213.471 99.7826C208.717 112.552 202.998 125.452 198.16 135.392ZM184.943 159.751C177.306 172.533 171.505 180.24 169.646 182.582C167.123 186.144 160.691 195.422 150.699 204.806C150.062 205.405 149.23 205.75 148.354 205.788C135.841 206.309 124.207 205.431 119.677 204.443C115.84 202.857 106.912 198.843 96.3585 193.009C95.4381 192.501 94.8962 191.509 94.9653 190.463C95.516 182.284 98.1115 170.633 100.408 158.313C106.085 148.346 111.97 136.974 118.073 127.633C118.716 126.651 119.919 126.193 121.055 126.504C139.328 131.491 155.184 135.278 161.621 136.726C170.436 146.945 178.977 154.131 184.723 158.585C185.081 158.862 185.173 159.362 184.943 159.751ZM74.3853 177.514C73.4594 178.088 72.2801 178.057 71.3904 177.427C63.4337 171.796 53.9401 164.6 46.0328 157.213C41.3683 149.243 37.7712 139.044 35.2601 130.358C35.0978 129.799 35.2228 129.193 35.5914 128.742C44.4641 117.837 55.1129 109.208 59.5646 105.923C69.6077 110.254 81.1352 114.076 91.219 117.429C92.2502 117.771 92.9786 118.695 93.0642 119.776C94.4859 137.711 97.7726 152.216 98.6502 157.758C94.8852 161.78 85.0472 170.898 74.3853 177.514ZM30.1908 106.942C28.8744 98.4756 28.0088 89.5835 27.9134 85.5109C27.6951 76.1076 29.1892 67.7794 30.9247 60.0694C31.2099 58.8072 31.8649 57.663 32.8204 56.7886C37.8612 52.1724 46.9763 44.0285 52.729 40.3396C58.1516 36.8635 73.2224 31.9992 79.437 30.1947C80.6415 29.8436 81.9251 30.3791 82.5449 31.4678C83.292 32.7801 84.073 34.0829 84.9013 35.3655C89.794 42.9805 95.1858 49.5368 97.4566 52.3757C94.4464 64.325 93.1673 77.7223 92.5848 89.0236C92.5299 90.0838 91.8542 91.0125 90.8635 91.3988C75.14 97.5307 63.256 102.329 59.2629 104.171C48.4594 104.627 38.1694 106.468 31.2242 107.681C30.7316 107.768 30.2676 107.433 30.1908 106.942ZM109.455 24.8816C109.885 24.2147 110.589 23.77 111.377 23.6656C127.546 21.5303 142.339 21.2158 148.025 21.373C158.372 28.252 168.483 37.3286 176.553 45.936C177.118 46.5393 177.202 47.4477 176.756 48.1445C170.997 57.1478 162.623 65.7919 158.944 69.5568C145.302 72.7847 130.839 77.4836 119.1 81.3353C117.958 81.7094 116.703 81.2851 116.02 80.2955C107.113 67.3591 101.452 56.2693 99.2327 52.1547C101.642 41.3699 105.011 31.766 109.455 24.8816ZM217.462 131.073C217.172 131.204 216.84 131 216.823 130.684C216.145 117.404 214.923 104.502 214.284 99.7826C214.335 88.3145 212.433 76.414 210.535 67.6384C210.467 67.3212 210.748 67.0378 211.067 67.1015C221.921 69.3168 225.405 73.3799 225.405 73.3799C219.659 60.5019 211.38 50.7976 202.381 43.4631C194.688 27.3612 185.832 19.9143 185.832 19.9143C186.549 23.4757 186.055 27.5036 184.786 31.6603C184.706 31.9246 184.403 32.0507 184.154 31.9301C169.408 24.723 154.181 21.4314 148.291 20.6071C139.49 16.3311 129.877 13.5017 122.059 11.357C121.851 11.3001 121.794 11.0302 121.962 10.8906C132.337 2.28447 141.881 0.0936397 141.881 0.0936397C124.985 -0.582865 110.442 2.47156 98.2816 7.14203C80.1128 5.68734 68.5393 8.84483 68.5393 8.84483C68.5393 8.84483 73.5559 14.8452 75.5064 18.1857C75.7412 18.5898 75.6183 19.1076 75.2332 19.3734C63.8056 27.2907 55.6065 35.9877 52.3736 39.6089C48.7721 40.0955 42.5345 40.9564 37.0867 42.2986C36.8695 42.3528 36.6852 42.1345 36.7729 41.9285C42.2284 28.9447 48.1753 21.7567 48.1753 21.7567C48.1753 21.7567 13.1102 46.6342 6.46342 91.3378C6.46342 91.3378 9.35077 83.4136 19.1142 71.4033C19.2426 71.246 19.4916 71.2771 19.575 71.4629C22.3417 77.5826 25.5043 83.0164 27.0939 85.5109C21.724 94.1469 18.0172 103.564 15.7343 111.27C15.6553 111.537 15.4535 111.752 15.1902 111.851C7.06898 114.931 5 117.869 5 117.869C6.26267 122.178 8.74192 126.378 11.8739 130.336C12.146 130.678 12.2842 131.106 12.2655 131.543C11.4033 150.621 17.5641 163.178 17.5641 163.178C18.9552 156.515 21.679 150.043 25.1193 143.969C25.2564 143.726 25.5789 143.666 25.7961 143.838C33.811 150.197 42.1132 155.757 45.4075 157.732C47.1068 162.066 51.9721 173.314 58.473 184.854C58.609 185.097 58.4982 185.406 58.2361 185.501C50.4516 188.334 42.4653 189.616 35.1427 187.835C35.1427 187.835 43.9737 198.825 71.2149 203.512C78.7722 212.434 87.9696 219.822 98.7105 222.388C98.7105 222.388 95.5621 218.931 94.7843 206.048C94.7678 205.787 94.9774 205.564 95.2395 205.569C101.965 205.669 111.089 205.815 119.441 205.21C122.401 207.541 128.86 212.657 135.16 215.918C135.474 216.081 135.494 216.521 135.192 216.705C124.117 223.392 116.749 223.974 116.749 223.974C166.912 225.042 197.031 192.369 197.031 192.369C188.768 197.798 179.226 201.172 169.728 203.183C169.408 203.251 169.127 202.968 169.194 202.648C170.958 194.126 170.463 185.887 170.339 182.984C182.241 180.035 192.623 174.725 200.31 169.295C200.464 169.186 200.672 169.185 200.829 169.293C204.029 171.516 206.767 174.011 209.499 178.163C209.499 178.163 214.704 170.81 216.494 153.773C229.38 136.974 231.295 119.779 231.295 119.779C228.062 124.828 223.18 128.466 217.462 131.073Z" fill="#F3F5F8"/>
</svg>
