<svg width="236" height="224" viewBox="0 0 236 224" fill="none" xmlns="http://www.w3.org/2000/svg">
<path d="M228.15 91.3737C224.955 74.2146 218.311 58.4945 207.594 44.7392C183.702 14.07 152.207 -0.881252 113.269 0.100021C104.085 0.332197 95.0698 1.83477 86.3063 4.55299C54.8574 14.3066 31.7734 33.9912 17.1573 63.4754C10.963 75.9691 7.52636 89.2776 6.49471 103.195C6.36548 104.932 6.20339 106.669 6.05664 108.406V115.406C6.20339 117.143 6.36767 118.878 6.49471 120.615C7.45189 133.59 10.5512 146.042 15.9898 157.848C27.96 183.835 47.0466 202.718 73.1489 214.453C82.966 218.867 93.2781 221.616 103.947 222.972C107.158 223.379 110.407 223.486 113.635 223.743C114.029 223.773 114.419 223.874 114.809 223.942H121.374C123.185 223.793 124.994 223.629 126.806 223.502C136.189 222.838 145.327 220.946 154.218 217.912C196.055 203.635 225.728 165.867 229.614 121.955C230.52 111.7 230.036 101.504 228.15 91.3737ZM118.149 213.17C62.3418 213.284 16.8988 167.876 16.8331 111.932C16.7652 56.0961 62.2126 10.6356 118.092 10.6421C173.988 10.6465 219.424 56.0961 219.356 111.932C219.286 167.839 174.082 213.058 118.149 213.17Z" fill="#F3F5F8"/>
<path d="M176.221 41.7021C143.397 76.3008 93.2928 76.695 59.9668 41.7109C60.2494 41.4524 60.5231 41.183 60.8166 40.9421C68.8267 34.3601 77.7064 29.307 87.4424 25.7455C88.1608 25.4826 88.6361 25.6228 89.2122 26.0675C95.297 30.7636 102.045 34.0775 109.617 35.5648C120.346 37.6719 130.476 35.8473 139.997 30.6102C142.477 29.2478 144.744 27.4999 147.144 25.9864C147.534 25.7411 148.183 25.5987 148.594 25.7455C158.508 29.2697 167.495 34.4302 175.601 41.1304C175.796 41.2903 175.974 41.4699 176.223 41.6999L176.221 41.7021Z" fill="#F3F5F8"/>
<path d="M187.744 53.1311C188.889 54.5964 190.055 56.0333 191.163 57.514C196.431 64.5669 200.531 72.2506 203.578 80.5082C203.869 81.2989 203.724 81.8224 203.225 82.4729C198.043 89.206 194.571 96.7101 193.377 105.158C191.98 115.052 193.896 124.374 198.7 133.087C200.067 135.567 201.801 137.84 203.317 140.241C203.569 140.637 203.773 141.279 203.633 141.678C200.08 151.742 194.827 160.846 187.998 169.042C187.908 169.149 187.794 169.237 187.691 169.333C152.977 137.216 152.727 85.627 187.746 53.1289L187.744 53.1311Z" fill="#F3F5F8"/>
<path d="M48.53 53.1445C83.6193 86.3895 83.0235 136.868 48.4994 169.395C48.1489 168.981 47.7941 168.578 47.4546 168.162C41.0588 160.285 36.1261 151.581 32.6216 142.059C32.3369 141.284 32.4245 140.749 32.9348 140.088C38.1478 133.329 41.6173 125.787 42.8154 117.3C44.0902 108.275 42.6183 99.6345 38.5289 91.5237C36.9147 88.3214 34.7835 85.3798 32.8538 82.3396C32.5274 81.8249 32.2821 81.4372 32.5274 80.7625C36.1174 70.8293 41.291 61.8073 48.0306 53.679C48.1686 53.5147 48.3241 53.3636 48.53 53.1467V53.1445Z" fill="#F3F5F8"/>
<path d="M176.231 180.863C172.043 184.42 167.702 187.64 162.918 190.143C158.382 192.518 153.644 194.513 149.003 196.693C148.175 197.082 147.564 196.923 146.834 196.362C140.04 191.136 132.461 187.651 123.924 186.516C112.764 185.033 102.537 187.736 93.1055 193.718C91.6927 194.614 90.3829 195.674 88.9833 196.592C88.6481 196.811 88.0787 196.944 87.7216 196.817C77.5869 193.238 68.4204 187.96 60.1934 181.047C60.1409 181.003 60.108 180.933 60.0664 180.874C89.4936 148.361 141.164 143.772 176.233 180.863H176.231Z" fill="#F3F5F8"/>
<path d="M86.6016 142.032V118.977H111.427V124.102H93.0039V128.204H109.092V133.301H92.9776V136.911H111.464V142.034H86.6016V142.032Z" fill="#F3F5F8"/>
<path d="M109.863 100.916C109.051 99.6022 108.24 98.288 107.432 96.9782C111.684 94.2578 112.087 90.2473 111.138 87.2224C110.028 83.6762 107.15 81.8955 102.701 81.8955C97.7465 81.8933 92.792 81.8955 87.8374 81.8955H86.6152V105.021H92.7263V97.828C95.2846 97.828 97.7246 97.8609 100.162 97.8105C100.898 97.7952 101.266 98.0756 101.606 98.6823C102.692 100.619 103.82 102.531 104.972 104.43C105.15 104.721 105.531 105.072 105.829 105.08C107.967 105.135 110.107 105.109 112.457 105.109C111.506 103.576 110.685 102.246 109.863 100.916ZM103.268 92.488C99.7857 92.5887 96.2987 92.5208 92.7394 92.5208V86.964C94.8531 86.964 96.9164 86.9618 98.9819 86.964C100.329 86.964 101.678 86.9223 103.021 86.9859C104.519 87.0559 105.586 88.219 105.621 89.6975C105.656 91.1541 104.721 92.4464 103.268 92.488Z" fill="#F3F5F8"/>
<path d="M133.227 86.8649V90.9609H149.357V95.9921H133.214V104.808H126.871V81.7461H151.71V86.8627H133.227V86.8649Z" fill="#F3F5F8"/>
<path d="M151.724 118.785V123.86H133.248V127.993H149.336V133.084H133.176V141.849H126.846V118.785H151.724Z" fill="#F3F5F8"/>
</svg>
